{"accessors":[{"bufferView":0,"componentType":5123,"count":1932,"max":[363],"min":[0],"type":"SCALAR"},{"bufferView":1,"componentType":5126,"count":364,"max":[0.4356817305088043,0.05839432030916214,0.16764411330223083],"min":[-0.4988023340702057,-0.08390568196773529,-0.2899923026561737],"type":"VEC3"},{"bufferView":2,"componentType":5126,"count":364,"max":[0.5644078850746155,1.0,0.5826780796051025],"min":[-0.8138130903244019,0.12427719682455063,-0.5637449622154236],"type":"VEC3"},{"bufferView":3,"componentType":5126,"count":364,"max":[1.0093441009521484,0.7448849678039551],"min":[0.001876850612461567,0.227769136428833],"type":"VEC2"},{"bufferView":4,"componentType":5123,"count":1425,"max":[275],"min":[0],"type":"SCALAR"},{"bufferView":5,"componentType":5126,"count":276,"max":[0.46666669845581055,0.0,0.1666666567325592],"min":[-0.5,0.0,-0.30000007152557373],"type":"VEC3"},{"bufferView":6,"componentType":5126,"count":276,"max":[0.0,1.0,0.0],"min":[0.0,0.9999999403953552,0.0],"type":"VEC3"},{"bufferView":7,"componentType":5126,"count":276,"max":[1.0093441009521484,0.7466548681259155],"min":[-0.0014257431030273438,0.227769136428833],"type":"VEC2"}],"asset":{"copyright":null,"generator":"Verge3D for Maya v4.8.0","version":"2.0"},"bufferViews":[{"buffer":0,"byteLength":3864,"byteOffset":0,"target":34963},{"buffer":0,"byteLength":4368,"byteOffset":3864,"target":34962},{"buffer":0,"byteLength":4368,"byteOffset":8232,"target":34962},{"buffer":0,"byteLength":2912,"byteOffset":12600,"target":34962},{"buffer":0,"byteLength":2850,"byteOffset":15512,"target":34963},{"buffer":0,"byteLength":3312,"byteOffset":18364,"target":34962},{"buffer":0,"byteLength":3312,"byteOffset":21676,"target":34962},{"buffer":0,"byteLength":2208,"byteOffset":24988,"target":34962}],"buffers":[{"byteLength":27196,"uri":"SAIL_1.bin"}],"cameras":[{"extensions":{"S8S_v3d_camera":{"controls":"ORBIT","enablePan":true,"moveSpeed":1.0,"orbitMaxDistance":1000.0,"orbitMaxPolarAngle":3.141592653589793,"orbitMaxZoom":100.0,"orbitMinDistance":0.0,"orbitMinPolarAngle":0.0,"orbitMinZoom":0.009999999776482582,"orbitTarget":[5.569445539743915,-1.150949236801825,-2.5219138514567305],"rotateSpeed":1.0,"viewportFitInitialAspect":1.5,"viewportFitType":"HORIZONTAL"}},"name":"perspShape","perspective":{"aspectRatio":1.5,"yfov":0.6605947096585074,"zfar":10000.0,"znear":0.1},"type":"perspective"}],"extensions":{"S8S_v3d_lights":{"lights":[{"color":[1,1,1],"intensity":2.5,"name":"__DEFAULT__","profile":"maya","type":"directional"}]}},"extensionsUsed":["S8S_v3d_materials","S8S_v3d_lights","S8S_v3d_camera","S8S_v3d_mesh","S8S_v3d_node","S8S_v3d_scene"],"materials":[{"name":"VRayMtl1","pbrMetallicRoughness":{}},{"extensions":{"S8S_v3d_materials":{"nodeGraph":{"edges":[{"fromNode":0,"fromOutput":0,"toInput":0,"toNode":1}],"nodes":[{"inputs":[[0.35593602641242716,0.35593602641242716,0.35593602641242716],[0,0,0],[0,0,0],[0,0,0],[0,0,0],[0,0,0]],"name":"aiRaySwitchColor","outputs":[[0,0,0],0],"type":"RAY_SWITCH_AR"},{"inputs":[[0,0,0],1],"is_active_output":true,"name":"aiSkyDomeLightShapeColor","outputs":[],"type":"SKYDOME_LIGHT_AR"}]},"profile":"maya"}},"name":"Verge3D_Environment"}],"meshes":[{"extensions":{"S8S_v3d_mesh":{}},"name":"pPlaneShape1","primitives":[{"attributes":{"NORMAL":2,"POSITION":1,"TEXCOORD_0":3},"indices":0,"material":0,"mode":4}]},{"extensions":{"S8S_v3d_mesh":{}},"name":"pPlaneShape2","primitives":[{"attributes":{"NORMAL":6,"POSITION":5,"TEXCOORD_0":7},"indices":4,"material":0,"mode":4}]}],"nodes":[{"extensions":{"S8S_v3d_node":{"frustumCulling":true,"hidden":false,"hidpiCompositing":false,"renderOrder":0,"useCastShadows":true,"useShadows":true}},"mesh":0,"name":"pPlane1","rotation":[0.7071067811865477,0.0,0.0,0.7071067811865474],"scale":[23.037976759552066,23.037976759552066,23.037976759552066],"translation":[0.0,0.0,0.0]},{"extensions":{"S8S_v3d_node":{"frustumCulling":true,"hidden":false,"hidpiCompositing":false,"renderOrder":0,"useCastShadows":true,"useShadows":true}},"mesh":1,"name":"pPlane2","rotation":[0.7071067811865477,0.0,0.0,0.7071067811865474],"scale":[23.037976759552066,23.037976759552066,23.037976759552066],"translation":[0.0,0.0,0.0]},{"camera":0,"children":[3],"extensions":{"S8S_v3d_node":{"hidden":true,"hidpiCompositing":false}},"name":"persp","rotation":[-0.1944523373481434,-0.09740485807125975,-0.019408923547089712,0.9758708294701225],"scale":[1.0,1.0,1.0],"translation":[-3.6520167091693327,18.21027694832042,43.21144273997249]},{"extensions":{"S8S_v3d_lights":{"light":0}},"name":"__DEFAULT_LIGHT__","rotation":[-0.13052619222005157,-0.0,-0.0,0.9914448613738104],"translation":[-3.6520167091693327,18.21027694832042,43.21144273997249]}],"scene":0,"scenes":[{"extensions":{"S8S_v3d_scene":{"aaMethod":"AUTO","iblEnvironmentMode":"PMREM","physicallyCorrectLights":true,"shadowMap":{"esmDistanceScale":2.5,"renderReverseSided":false,"renderSingleSided":true,"type":"PCFPOISSON"},"unitsScaleFactor":1.0,"useHDR":false,"useOIT":false,"worldMaterial":1}},"extras":{"animFrameRate":24.0,"coordSystem":"Y_UP_RIGHT"},"name":"Scene","nodes":[0,1,2]}]}