{"accessors":[{"bufferView":0,"componentType":5123,"count":4488,"max":[977],"min":[0],"type":"SCALAR"},{"bufferView":1,"componentType":5126,"count":978,"max":[10.038824081420898,6.682590007781982,1.3485944271087646],"min":[-11.493888854980469,-3.8638501167297363,-1.9330171346664429],"type":"VEC3"},{"bufferView":2,"componentType":5126,"count":978,"max":[0.9969093203544617,0.9993823766708374,1.0],"min":[-0.9824179410934448,-0.9999949336051941,-1.0],"type":"VEC3"},{"bufferView":3,"componentType":5126,"count":978,"max":[1.0093441009521484,0.7448849678039551],"min":[0.001876850612461567,0.227769136428833],"type":"VEC2"}],"asset":{"copyright":null,"generator":"Verge3D for Maya v4.8.0","version":"2.0"},"bufferViews":[{"buffer":0,"byteLength":8976,"byteOffset":0,"target":34963},{"buffer":0,"byteLength":11736,"byteOffset":8976,"target":34962},{"buffer":0,"byteLength":11736,"byteOffset":20712,"target":34962},{"buffer":0,"byteLength":7824,"byteOffset":32448,"target":34962}],"buffers":[{"byteLength":40272,"uri":"SAIL_8.bin"}],"cameras":[{"extensions":{"S8S_v3d_camera":{"controls":"ORBIT","enablePan":true,"moveSpeed":1.0,"orbitMaxDistance":1000.0,"orbitMaxPolarAngle":3.141592653589793,"orbitMaxZoom":100.0,"orbitMinDistance":0.0,"orbitMinPolarAngle":0.0,"orbitMinZoom":0.009999999776482582,"orbitTarget":[-5.747031674164066,-1.1216419856743993,-1.5007452614390147],"rotateSpeed":1.0,"viewportFitInitialAspect":1.5,"viewportFitType":"HORIZONTAL"}},"name":"perspShape","perspective":{"aspectRatio":1.5,"yfov":0.6605947096585074,"zfar":10000.0,"znear":0.1},"type":"perspective"}],"extensions":{"S8S_v3d_lights":{"lights":[{"color":[1,1,1],"intensity":2.5,"name":"__DEFAULT__","profile":"maya","type":"directional"}]}},"extensionsUsed":["S8S_v3d_texture","S8S_v3d_materials","S8S_v3d_lights","S8S_v3d_camera","S8S_v3d_mesh","S8S_v3d_node","S8S_v3d_scene"],"images":[{"mimeType":"image/png","uri":"raccoon_paint_baseColor.png"}],"materials":[{"extensions":{"S8S_v3d_materials":{"gtaoVisible":true,"nodeGraph":{"edges":[{"fromNode":1,"fromOutput":0,"toInput":0,"toNode":0},{"fromNode":2,"fromOutput":1,"toInput":0,"toNode":1},{"fromNode":3,"fromOutput":0,"toInput":0,"toNode":2}],"nodes":[{"inputs":[[0.0,0.0,0.0,1],[0,0,0,0],[0,0,0]],"is_active_output":true,"name":"lambert3SG","outputs":[],"type":"SHADING_ENGINE_MY"},{"inputs":[[0.0,0.0,0.0],[0.0,0.0,0.0],[0.0,0.0,0.0],1.0,0.800000011920929,[1.0,1.0,1.0],0.0,[0.0,0.0,0.0]],"name":"lambert3","outputs":[[0.0,0.0,0.0,0]],"type":"LAMBERT_MY"},{"fileHasAlpha":false,"inputs":[[0.0,0.0]],"name":"file7","outputs":[1.0,[0.0,0.0,0.0],[512.0,512.0],[0.0,0.0,0.0]],"texture":0,"type":"FILE_MY"},{"inputs":[[0.0,0.0],[1.0,1.0],0.0],"name":"place2dTexture7","outputs":[[0.0,0.0]],"type":"PLACE_2D_TEXTURE_MY","uvIndex":0}]},"profile":"maya"}},"name":"lambert3"},{"extensions":{"S8S_v3d_materials":{"nodeGraph":{"edges":[{"fromNode":0,"fromOutput":0,"toInput":0,"toNode":1}],"nodes":[{"inputs":[[0.35593602641242716,0.35593602641242716,0.35593602641242716],[0,0,0],[0,0,0],[0,0,0],[0,0,0],[0,0,0]],"name":"aiRaySwitchColor","outputs":[[0,0,0],0],"type":"RAY_SWITCH_AR"},{"inputs":[[0,0,0],1],"is_active_output":true,"name":"aiSkyDomeLightShapeColor","outputs":[],"type":"SKYDOME_LIGHT_AR"}]},"profile":"maya"}},"name":"Verge3D_Environment"}],"meshes":[{"extensions":{"S8S_v3d_mesh":{}},"name":"pPlaneShape1","primitives":[{"attributes":{"NORMAL":2,"POSITION":1,"TEXCOORD_0":3},"indices":0,"material":0,"mode":4}]}],"nodes":[{"extensions":{"S8S_v3d_node":{"frustumCulling":true,"hidden":false,"hidpiCompositing":false,"renderOrder":0,"useCastShadows":true,"useShadows":true}},"mesh":0,"name":"pPlane1","rotation":[0.0,0.0,0.0,1.0],"scale":[1.0,1.0,1.0],"translation":[0.0,0.0,0.0]},{"camera":0,"children":[2],"extensions":{"S8S_v3d_node":{"hidden":true,"hidpiCompositing":false}},"name":"persp","rotation":[-0.07583189896111074,-0.0955672133365968,-0.007301781373972406,0.9925034583434941],"scale":[0.9999999999999999,1.0,1.0],"translation":[-13.324951268697099,4.982768713387463,37.48427142134247]},{"extensions":{"S8S_v3d_lights":{"light":0}},"name":"__DEFAULT_LIGHT__","rotation":[-0.13052619222005157,-0.0,-0.0,0.9914448613738104],"translation":[-13.324951268697099,4.982768713387463,37.48427142134247]}],"samplers":[{},{"magFilter":9728,"minFilter":9986,"wrapS":10497,"wrapT":10497}],"scene":0,"scenes":[{"extensions":{"S8S_v3d_scene":{"aaMethod":"AUTO","iblEnvironmentMode":"PMREM","physicallyCorrectLights":true,"shadowMap":{"esmDistanceScale":2.5,"renderReverseSided":false,"renderSingleSided":true,"type":"PCFPOISSON"},"unitsScaleFactor":1.0,"useHDR":false,"useOIT":false,"worldMaterial":1}},"extras":{"animFrameRate":24.0,"coordSystem":"Y_UP_RIGHT"},"name":"Scene","nodes":[0,1]}],"textures":[{"extensions":{"S8S_v3d_texture":{"colorSpace":"srgb"}},"name":"file7","sampler":1,"source":0}]}