{
	"asset":{
		"generator":"Khronos glTF Blender I/O v4.2.60",
		"version":"2.0"
	},
	"extensionsUsed":[
		"KHR_materials_specular"
	],
	"scene":0,
	"scenes":[
		{
			"name":"Scene",
			"nodes":[
				0
			]
		}
	],
	"nodes":[
		{
			"mesh":0,
			"name":"POLAROID_1",
			"rotation":[
				0.7071068286895752,
				0,
				0,
				0.7071068286895752
			]
		}
	],
	"materials":[
		{
			"doubleSided":true,
			"extensions":{
				"KHR_materials_specular":{
					"specularFactor":0
				}
			},
			"name":"lambert5SG",
			"pbrMetallicRoughness":{
				"baseColorTexture":{
					"index":0
				},
				"metallicFactor":0
			}
		}
	],
	"meshes":[
		{
			"name":"POLAROID_1",
			"primitives":[
				{
					"attributes":{
						"POSITION":0,
						"NORMAL":1,
						"TEXCOORD_0":2
					},
					"indices":3,
					"material":0
				}
			]
		}
	],
	"textures":[
		{
			"sampler":0,
			"source":0
		}
	],
	"images":[
		{
			"mimeType":"image/jpeg",
			"name":"PHOTO_1",
			"uri":"PHOTO_1.jpg"
		}
	],
	"accessors":[
		{
			"bufferView":0,
			"componentType":5126,
			"count":385,
			"max":[
				8.966796875,
				0.0730229988694191,
				7.673456192016602
			],
			"min":[
				-8.966796875,
				-0.0730229988694191,
				-7.673456192016602
			],
			"type":"VEC3"
		},
		{
			"bufferView":1,
			"componentType":5126,
			"count":385,
			"type":"VEC3"
		},
		{
			"bufferView":2,
			"componentType":5126,
			"count":385,
			"type":"VEC2"
		},
		{
			"bufferView":3,
			"componentType":5123,
			"count":2004,
			"type":"SCALAR"
		}
	],
	"bufferViews":[
		{
			"buffer":0,
			"byteLength":4620,
			"byteOffset":0,
			"target":34962
		},
		{
			"buffer":0,
			"byteLength":4620,
			"byteOffset":4620,
			"target":34962
		},
		{
			"buffer":0,
			"byteLength":3080,
			"byteOffset":9240,
			"target":34962
		},
		{
			"buffer":0,
			"byteLength":4008,
			"byteOffset":12320,
			"target":34963
		}
	],
	"samplers":[
		{
			"magFilter":9729,
			"minFilter":9987
		}
	],
	"buffers":[
		{
			"byteLength":16328,
			"uri":"PHOTO.bin"
		}
	]
}
