{
	"asset":{
		"generator":"Khronos glTF Blender I/O v4.2.60",
		"version":"2.0"
	},
	"extensionsUsed":[
		"KHR_materials_specular"
	],
	"scene":0,
	"scenes":[
		{
			"name":"Scene",
			"nodes":[
				0
			]
		}
	],
	"nodes":[
		{
			"mesh":0,
			"name":"oeo",
			"rotation":[
				0.7071068286895752,
				0,
				0,
				0.7071068286895752
			]
		}
	],
	"materials":[
		{
			"doubleSided":true,
			"extensions":{
				"KHR_materials_specular":{
					"specularFactor":0
				}
			},
			"name":"lambert3SG",
			"pbrMetallicRoughness":{
				"baseColorTexture":{
					"index":0
				},
				"metallicFactor":0
			}
		}
	],
	"meshes":[
		{
			"name":"oeo",
			"primitives":[
				{
					"attributes":{
						"POSITION":0,
						"NORMAL":1,
						"TEXCOORD_0":2
					},
					"indices":3,
					"material":0
				}
			]
		}
	],
	"textures":[
		{
			"sampler":0,
			"source":0
		}
	],
	"images":[
		{
			"mimeType":"image/png",
			"name":"raccoon_paint_baseColor",
			"uri":"raccoon_paint_baseColor.png"
		}
	],
	"accessors":[
		{
			"bufferView":0,
			"componentType":5126,
			"count":980,
			"max":[
				10.038824081420898,
				1.3485939502716064,
				3.8638501167297363
			],
			"min":[
				-11.493888854980469,
				-1.9330170154571533,
				-6.682590007781982
			],
			"type":"VEC3"
		},
		{
			"bufferView":1,
			"componentType":5126,
			"count":980,
			"type":"VEC3"
		},
		{
			"bufferView":2,
			"componentType":5126,
			"count":980,
			"type":"VEC2"
		},
		{
			"bufferView":3,
			"componentType":5123,
			"count":4488,
			"type":"SCALAR"
		}
	],
	"bufferViews":[
		{
			"buffer":0,
			"byteLength":11760,
			"byteOffset":0,
			"target":34962
		},
		{
			"buffer":0,
			"byteLength":11760,
			"byteOffset":11760,
			"target":34962
		},
		{
			"buffer":0,
			"byteLength":7840,
			"byteOffset":23520,
			"target":34962
		},
		{
			"buffer":0,
			"byteLength":8976,
			"byteOffset":31360,
			"target":34963
		}
	],
	"samplers":[
		{
			"magFilter":9729,
			"minFilter":9987
		}
	],
	"buffers":[
		{
			"byteLength":40336,
			"uri":"JIM_18.bin"
		}
	]
}
